<svg xmlns="http://www.w3.org/2000/svg" width="1024" height="1024" viewBox="0 0 1024 1024" fill="none">
  <defs>
    <linearGradient id="bg" x1="0" y1="0" x2="1" y2="1">
      <stop offset="0%" stop-color="#f5e9ff"/>
      <stop offset="100%" stop-color="#f7d7ee"/>
    </linearGradient>
    <radialGradient id="glow" cx="25%" cy="20%" r="60%">
      <stop offset="0%" stop-color="#ffffff" stop-opacity="0.7"/>
      <stop offset="100%" stop-color="#ffffff" stop-opacity="0"/>
    </radialGradient>
    <linearGradient id="top" x1="0" y1="0" x2="1" y2="1">
      <stop offset="0%" stop-color="#fdeaff"/>
      <stop offset="100%" stop-color="#f1cbe4"/>
    </linearGradient>
    <linearGradient id="left" x1="0" y1="0" x2="0" y2="1">
      <stop offset="0%" stop-color="#e7b5d6"/>
      <stop offset="100%" stop-color="#d7a2c7"/>
    </linearGradient>
    <linearGradient id="right" x1="0" y1="0" x2="0" y2="1">
      <stop offset="0%" stop-color="#f4cde8"/>
      <stop offset="100%" stop-color="#e7b7d6"/>
    </linearGradient>
    <linearGradient id="ring" x1="0" y1="0" x2="1" y2="0">
      <stop offset="0%" stop-color="#f8f1ff"/>
      <stop offset="100%" stop-color="#f0b5d7"/>
    </linearGradient>
    <linearGradient id="hole" x1="0" y1="0" x2="0" y2="1">
      <stop offset="0%" stop-color="#b06aa1"/>
      <stop offset="100%" stop-color="#8a437e"/>
    </linearGradient>
    <radialGradient id="sphere" cx="30%" cy="30%" r="70%">
      <stop offset="0%" stop-color="#ffffff"/>
      <stop offset="55%" stop-color="#e7cff6"/>
      <stop offset="100%" stop-color="#c89ddc"/>
    </radialGradient>
    <linearGradient id="shine" x1="0" y1="0" x2="1" y2="1">
      <stop offset="0%" stop-color="#ffffff" stop-opacity="0.6"/>
      <stop offset="100%" stop-color="#ffffff" stop-opacity="0"/>
    </linearGradient>
    <filter id="shadow" x="-20%" y="-20%" width="140%" height="160%">
      <feDropShadow dx="0" dy="18" stdDeviation="18" flood-color="#c7a6d8" flood-opacity="0.45"/>
    </filter>
  </defs>
  <rect width="1024" height="1024" rx="120" fill="url(#bg)"/>
  <rect width="1024" height="1024" rx="120" fill="url(#glow)"/>
  <ellipse cx="520" cy="770" rx="260" ry="86" fill="#dec6ed" opacity="0.55"/>

  <g filter="url(#shadow)">
    <polygon points="512 210 740 340 512 470 284 340" fill="url(#top)"/>
    <polygon points="284 340 512 470 512 720 284 590" fill="url(#left)"/>
    <polygon points="740 340 512 470 512 720 740 590" fill="url(#right)"/>
    <polygon points="640 390 740 440 740 560 640 510" fill="url(#shine)" opacity="0.6"/>
    <polyline points="512 210 740 340 512 470 284 340 512 210" fill="none" stroke="#ffffff" stroke-opacity="0.35" stroke-width="4"/>
    <ellipse cx="512" cy="340" rx="100" ry="38" fill="url(#ring)"/>
    <ellipse cx="512" cy="340" rx="64" ry="24" fill="url(#hole)"/>
    <ellipse cx="480" cy="332" rx="38" ry="12" fill="#ffffff" opacity="0.35"/>
    <circle cx="392" cy="605" r="46" fill="url(#sphere)"/>
    <circle cx="392" cy="605" r="16" fill="#ffffff" opacity="0.6"/>
  </g>

  <g filter="url(#shadow)">
    <polygon points="190 260 310 330 190 400 70 330" fill="url(#top)" opacity="0.95"/>
    <polygon points="70 330 190 400 190 520 70 450" fill="url(#left)" opacity="0.95"/>
    <polygon points="310 330 190 400 190 520 310 450" fill="url(#right)" opacity="0.95"/>
    <polyline points="190 260 310 330 190 400 70 330 190 260" fill="none" stroke="#ffffff" stroke-opacity="0.3" stroke-width="3"/>
  </g>

  <g filter="url(#shadow)">
    <polygon points="834 290 944 350 834 410 724 350" fill="url(#top)" opacity="0.9"/>
    <polygon points="724 350 834 410 834 520 724 460" fill="url(#left)" opacity="0.9"/>
    <polygon points="944 350 834 410 834 520 944 460" fill="url(#right)" opacity="0.9"/>
  </g>

  <path d="M180 820c180-90 380-110 620-40" fill="none" stroke="#e1c4f0" stroke-width="18" stroke-linecap="round" opacity="0.6"/>
</svg>
