<svg xmlns="http://www.w3.org/2000/svg" width="1024" height="1024" viewBox="0 0 1024 1024" fill="none">
  <defs>
    <linearGradient id="bg" x1="0" y1="0" x2="1" y2="1">
      <stop offset="0%" stop-color="#f6e9ff"/>
      <stop offset="100%" stop-color="#f7d6ee"/>
    </linearGradient>
    <radialGradient id="glow" cx="70%" cy="20%" r="60%">
      <stop offset="0%" stop-color="#ffffff" stop-opacity="0.6"/>
      <stop offset="100%" stop-color="#ffffff" stop-opacity="0"/>
    </radialGradient>
    <linearGradient id="glassTop" x1="0" y1="0" x2="1" y2="1">
      <stop offset="0%" stop-color="#ffffff" stop-opacity="0.9"/>
      <stop offset="100%" stop-color="#d9c1f3" stop-opacity="0.7"/>
    </linearGradient>
    <linearGradient id="glassLeft" x1="0" y1="0" x2="0" y2="1">
      <stop offset="0%" stop-color="#e6b7db" stop-opacity="0.8"/>
      <stop offset="100%" stop-color="#cfa0cd" stop-opacity="0.7"/>
    </linearGradient>
    <linearGradient id="glassRight" x1="0" y1="0" x2="0" y2="1">
      <stop offset="0%" stop-color="#f3cfe8" stop-opacity="0.85"/>
      <stop offset="100%" stop-color="#d9a8cf" stop-opacity="0.75"/>
    </linearGradient>
    <radialGradient id="sphere" cx="30%" cy="30%" r="70%">
      <stop offset="0%" stop-color="#ffffff"/>
      <stop offset="55%" stop-color="#e5cdf6"/>
      <stop offset="100%" stop-color="#c796da"/>
    </radialGradient>
    <linearGradient id="edge" x1="0" y1="0" x2="1" y2="1">
      <stop offset="0%" stop-color="#ffffff" stop-opacity="0.5"/>
      <stop offset="100%" stop-color="#ffffff" stop-opacity="0"/>
    </linearGradient>
    <filter id="shadow" x="-20%" y="-20%" width="140%" height="160%">
      <feDropShadow dx="0" dy="18" stdDeviation="18" flood-color="#c7a6d8" flood-opacity="0.45"/>
    </filter>
  </defs>
  <rect width="1024" height="1024" rx="120" fill="url(#bg)"/>
  <rect width="1024" height="1024" rx="120" fill="url(#glow)"/>
  <ellipse cx="520" cy="770" rx="280" ry="90" fill="#dec6ed" opacity="0.55"/>

  <g filter="url(#shadow)">
    <polygon points="520 230 680 320 520 410 360 320" fill="url(#glassTop)"/>
    <polygon points="360 320 520 410 520 560 360 470" fill="url(#glassLeft)"/>
    <polygon points="680 320 520 410 520 560 680 470" fill="url(#glassRight)"/>
    <polyline points="520 230 680 320 520 410 360 320 520 230" fill="none" stroke="#ffffff" stroke-opacity="0.35" stroke-width="3"/>

    <polygon points="380 170 490 230 380 290 270 230" fill="url(#glassTop)"/>
    <polygon points="270 230 380 290 380 420 270 360" fill="url(#glassLeft)"/>
    <polygon points="490 230 380 290 380 420 490 360" fill="url(#glassRight)"/>
    <polygon points="430 260 490 295 490 360 430 325" fill="url(#edge)" opacity="0.7"/>

    <polygon points="660 190 760 245 660 300 560 245" fill="url(#glassTop)"/>
    <polygon points="560 245 660 300 660 420 560 365" fill="url(#glassLeft)"/>
    <polygon points="760 245 660 300 660 420 760 365" fill="url(#glassRight)"/>

    <polygon points="670 340 770 395 670 450 570 395" fill="url(#glassTop)"/>
    <polygon points="570 395 670 450 670 560 570 505" fill="url(#glassLeft)"/>
    <polygon points="770 395 670 450 670 560 770 505" fill="url(#glassRight)"/>
  </g>

  <g filter="url(#shadow)">
    <circle cx="760" cy="560" r="70" fill="url(#sphere)" opacity="0.95"/>
    <circle cx="420" cy="520" r="52" fill="url(#sphere)" opacity="0.85"/>
    <circle cx="420" cy="520" r="18" fill="#ffffff" opacity="0.6"/>
  </g>

  <path d="M200 820c200-80 380-90 620-40" fill="none" stroke="#e0c2ef" stroke-width="16" stroke-linecap="round" opacity="0.6"/>
</svg>
