<?xml version="1.0" encoding="UTF-8"?>
<svg id="Ebene_1" data-name="Ebene 1" xmlns="http://www.w3.org/2000/svg" xmlns:xlink="http://www.w3.org/1999/xlink" width="1000.63" height="1000.63" viewBox="0 0 1000.63 1000.63">
  <defs>
    <style>
      .cls-1 {
        fill: url(#Unbenannter_Verlauf_13);
      }
      .cls-1, .cls-2 {
        stroke: #1d1d1b;
        stroke-miterlimit: 10;
        stroke-width: 0.625px;
      }
      .cls-2 {
        fill: url(#Unbenannter_Verlauf_13-2);
      }
    </style>
    <linearGradient id="Unbenannter_Verlauf_13" data-name="Unbenannter Verlauf 13" x1=".315" y1="590.975" x2="750.315" y2="590.975" gradientTransform="translate(0 1000.63) rotate(-90)" gradientUnits="userSpaceOnUse">
      <stop offset="0" stop-color="#fff"/>
      <stop offset=".09" stop-color="#fff"/>
      <stop offset=".99" stop-color="#fff"/>
    </linearGradient>
    <linearGradient id="Unbenannter_Verlauf_13-2" data-name="Unbenannter Verlauf 13" x1="66.385" y1="701.86" x2="816.39" y2="701.86" gradientTransform="translate(1139.295 -34.145) rotate(92.92)" xlink:href="#Unbenannter_Verlauf_13"/>
  </defs>
  <g transform="scale(0.5,0.5)">
    <path class="cls-1" d="M1500.63,500.62c37.75,0,74.55,4.2,109.9,12.15,219.8,49.25,384.85,243.25,390,476.7.05,3.7.1,7.45.1,11.15,0,3.7-.05,7.45-.1,11.15-3.05,281.7-122.6,535.45-312.75,715.3q-.05,0-.05.05c-27.55,26.15-56.5,50.6-86.9,73.4-167.15,125.65-374.95,200.1-600.2,200.1-225.25,0-433.05-74.45-600.2-200.1-10.07-7.55-19.98-15.29-29.74-23.2-15.82-12.84-4.36-38.41,15.79-35.35h0c37.2,5.7,75.35,8.65,114.15,8.65,192.1,0,367.3-72.2,500-191,62.4-55.85,115.45-122,156.35-195.85,51.85-93.5,84.3-199.3,91.9-311.9,1.15-16.95,1.75-34,1.75-51.25,0-17.25-.6-34.3-1.75-51.25-7.23-107.11-36.95-208.08-84.46-298.15-4.36-8.27-2.59-18.41,4.41-24.62,88.28-78.4,204.48-125.99,331.8-125.99Z"/>
    <path class="cls-2" d="M475.15,1474.5c-37.7-1.93-74.24-8-109.14-17.74C149.01,1396.36-5.93,1194.19.84,960.78c.14-3.7.28-7.45.47-11.14.19-3.7.43-7.44.67-11.13C19.39,657.33,151.73,410.01,350.81,240.09t.05-.05c28.85-24.71,59.01-47.65,90.53-68.87C614.73,54.21,826.06-9.54,1051.02,1.95c224.96,11.49,428.69,96.44,589.21,230.46,9.67,8.06,19.18,16.29,28.51,24.69,15.15,13.63,2.4,38.58-17.57,34.5h0c-36.86-7.59-74.81-12.48-113.56-14.46-191.85-9.8-370.5,53.37-509.09,165.25-65.17,52.59-121.52,115.95-166.14,187.62-56.55,90.73-94.36,194.74-107.69,306.81-2.01,16.87-3.48,33.87-4.36,51.09-.88,17.23-1.15,34.29-.87,51.27,1.76,107.34,26.29,209.69,69.14,302.07,3.94,8.49,1.64,18.52-5.66,24.36-92.16,73.8-210.64,115.39-337.8,108.9Z"/>
  </g>
</svg>
